<?xml version="1.0" encoding="utf-8"?>
<!-- Svg Vector Icons : http://www.onlinewebfonts.com/icon -->
<!DOCTYPE svg PUBLIC "-//W3C//DTD SVG 1.1//EN" "http://www.w3.org/Graphics/SVG/1.1/DTD/svg11.dtd">
<svg version="1.1" xmlns="http://www.w3.org/2000/svg" xmlns:xlink="http://www.w3.org/1999/xlink" x="0px" y="0px" viewBox="0 0 1000 1000" enable-background="new 0 0 1000 1000" xml:space="preserve">
<metadata> Svg Vector Icons : http://www.onlinewebfonts.com/icon </metadata>
<g><path d="M799.4,309.4C799.4,144.4,665.1,10,500,10c-165.1,0-299.4,134.3-299.4,299.4c0,116.1,66.6,216.8,163.4,266.5C183.1,632.5,37.2,793.8,37.2,962.8c0,15,12.2,27.2,27.2,27.2s27.2-12.2,27.2-27.2c0-178.6,202.3-353.9,408.3-353.9C665.1,608.9,799.4,474.6,799.4,309.4z M500,554.4c-135.1,0-245-109.9-245-245c0-135.1,109.9-245,245-245c135.1,0,245,109.9,245,245C745,444.5,635.1,554.4,500,554.4z"/><path d="M637,636.1c0,15,12.2,27.2,27.2,27.2h271.3c15,0,27.2-12.2,27.2-27.2c0-15-12.2-27.2-27.2-27.2H664.3C649.2,608.9,637,621.1,637,636.1z"/><path d="M935.6,772.2H664.3c-15,0-27.2,12.2-27.2,27.2c0,15,12.2,27.2,27.2,27.2h271.3c15,0,27.2-12.2,27.2-27.2C962.8,784.4,950.6,772.2,935.6,772.2z"/><path d="M935.6,935.6H663.3c-15,0-27.2,12.2-27.2,27.2s12.2,27.2,27.2,27.2h272.2c15,0,27.2-12.2,27.2-27.2S950.6,935.6,935.6,935.6z"/></g>
</svg>